<svg width="129" height="60" viewBox="0 0 129 60" fill="none" xmlns="http://www.w3.org/2000/svg">
<path d="M6.15 16.25C6.78333 16.25 7.35 16.4167 7.85 16.75C8.38333 17.0833 8.7 17.6667 8.8 18.5C9.2 21.1333 9.45 23.7667 9.55 26.4C9.68333 29 9.75 31.95 9.75 35.25C9.75 36.65 9.63333 39.2 9.4 42.9C10.8667 43.0333 12 43.1 12.8 43.1C13.3667 43.1 14.65 43.0167 16.65 42.85C17.8167 42.6833 18.8333 42.6 19.7 42.6C20.5 42.6 21.2333 42.6833 21.9 42.85C22.5667 42.9833 23.25 43.2167 23.95 43.55C24.65 43.95 25 44.5667 25 45.4C25 46.0667 24.7833 46.6667 24.35 47.2C23.95 47.7333 23.4667 48 22.9 48C22.5 48 21.8667 47.9333 21 47.8C19.4333 47.5667 17.9333 47.45 16.5 47.45C16.0333 47.45 15.5 47.4833 14.9 47.55C14.3333 47.5833 13.9167 47.6 13.65 47.6C12.85 47.7 12.05 47.75 11.25 47.75C9.61667 47.75 8.15 47.6667 6.85 47.5C6.18333 47.4333 5.51667 47.1833 4.85 46.75C4.18333 46.2833 3.85 45.6167 3.85 44.75C3.85 44.25 3.91667 42.9667 4.05 40.9C4.28333 37.4667 4.4 34.85 4.4 33.05C4.4 31.65 4.33333 30.1833 4.2 28.65C4.06667 27.1167 3.98333 26.15 3.95 25.75C3.65 22.9167 3.5 20.5833 3.5 18.75C3.5 17.8833 3.7 17.25 4.1 16.85C4.53333 16.45 5.21667 16.25 6.15 16.25ZM31.7441 48.2C31.0775 48.2 30.5108 48.0833 30.0441 47.85C29.5775 47.6167 29.2941 47.3667 29.1941 47.1C28.8275 45.7667 28.6441 44.0167 28.6441 41.85C28.6441 37.85 28.7108 34.6 28.8441 32.1C28.9775 29.1333 29.0441 26.2833 29.0441 23.55C29.0441 22.75 28.9441 21.5833 28.7441 20.05C28.7108 19.7833 28.6608 19.3 28.5941 18.6C28.5275 17.9 28.4941 17.25 28.4941 16.65C28.4941 15.9167 28.7441 15.3333 29.2441 14.9C29.7775 14.4667 30.4608 14.25 31.2941 14.25C31.9608 14.25 32.4941 14.4667 32.8941 14.9C33.3275 15.3 33.5441 15.85 33.5441 16.55C33.5441 17.6167 33.5775 19.1167 33.6441 21.05C33.7108 22.85 33.7441 24.2 33.7441 25.1C33.7441 26.1 33.7108 27.4333 33.6441 29.1C33.5775 30.1 33.5441 30.8333 33.5441 31.3C33.5441 32.7667 33.5608 33.9833 33.5941 34.95C34.8275 33.7167 36.4441 32.2667 38.4441 30.6C40.4441 28.9333 41.9941 27.7667 43.0941 27.1C44.2608 26.4 45.0275 26.05 45.3941 26.05C46.0941 26.05 46.6941 26.2 47.1941 26.5C47.6941 26.8 47.9441 27.2333 47.9441 27.8C47.9441 28.3667 47.8608 28.8167 47.6941 29.15C47.5275 29.4833 47.2275 29.8167 46.7941 30.15L40.3441 34.85C41.0775 35.2167 41.6941 35.6833 42.1941 36.25C42.7275 36.8167 43.2608 37.5167 43.7941 38.35C44.9275 40.2167 45.8275 41.5833 46.4941 42.45C47.1941 43.3167 47.8275 43.75 48.3941 43.75L49.6441 43.7C49.8775 43.7 50.0775 43.8333 50.2441 44.1C50.4441 44.3667 50.5441 44.75 50.5441 45.25C50.5441 46.0167 50.1608 46.6333 49.3941 47.1C48.6608 47.5667 47.8275 47.8 46.8941 47.8C45.5941 47.8 44.4441 47.3 43.4441 46.3C42.4441 45.2667 41.4941 43.8833 40.5941 42.15C39.2941 39.6833 38.0108 38.2167 36.7441 37.75L33.5441 40.35L33.7441 45.8C33.7441 46.6667 33.5108 47.2833 33.0441 47.65C32.6108 48.0167 32.1775 48.2 31.7441 48.2ZM67.0242 34.75C68.5576 34.75 69.3242 35.6167 69.3242 37.35C69.3242 38.25 69.0076 38.9 68.3742 39.3C67.7742 39.7 67.0242 39.9 66.1242 39.9C65.8576 39.9 65.5742 39.8833 65.2742 39.85C64.9742 39.8167 64.6576 39.7833 64.3242 39.75C63.3242 39.5833 62.4242 39.5 61.6242 39.5C61.0576 39.5 60.2076 39.5667 59.0742 39.7C57.8742 39.8333 56.9576 39.9 56.3242 39.9C55.4242 39.9 54.6242 39.7333 53.9242 39.4C53.2242 39.0333 52.8742 38.4333 52.8742 37.6C52.8742 36.4333 53.3076 35.6833 54.1742 35.35C55.0409 34.9833 56.2576 34.8 57.8242 34.8L59.4742 34.85C60.2742 34.9167 60.8909 34.95 61.3242 34.95L64.9742 34.85L67.0242 34.75Z" fill="white"/>
<path d="M79.9926 19C79.9926 19.9667 79.9592 21.25 79.8926 22.85L79.8426 26.1C79.8426 29.2667 80.0759 31.9167 80.5426 34.05C81.2092 37.05 82.2092 39.3667 83.5426 41C84.7759 42.4333 86.2926 43.15 88.0926 43.15C89.4926 43.15 90.7426 42.7333 91.8426 41.9C92.9426 41.0333 93.7926 39.9667 94.3926 38.7C95.3926 36.6333 95.8926 34.0833 95.8926 31.05C95.8926 29.2167 95.7759 27.05 95.5426 24.55C95.3426 21.75 95.2426 19.65 95.2426 18.25C95.2426 17.5167 95.6759 17.05 96.5426 16.85C97.4092 16.6167 98.3092 16.5 99.2426 16.5C99.5759 16.5 99.9592 16.7167 100.393 17.15C100.826 17.5833 101.043 18.05 101.043 18.55C101.043 19.55 100.993 20.5 100.893 21.4C100.826 22.4 100.793 23.1 100.793 23.5C100.793 24.7667 100.859 26.5333 100.993 28.8C101.026 29.3667 101.059 30.05 101.093 30.85C101.126 31.65 101.143 32.5667 101.143 33.6C101.143 35.8667 100.593 38.1333 99.4926 40.4C98.4259 42.6333 96.9259 44.4833 94.9926 45.95C93.0592 47.3833 90.8759 48.1 88.4426 48.1C84.7092 48.1 81.7926 46.9 79.6926 44.5C77.5926 42.0667 76.1592 38.9333 75.3926 35.1C74.9592 32.9 74.6759 30.6 74.5426 28.2C74.4426 25.8 74.3926 22.5833 74.3926 18.55C74.3926 18.0167 74.6426 17.5167 75.1426 17.05C75.6759 16.5833 76.2426 16.35 76.8426 16.35C78.9426 16.35 79.9926 17.2333 79.9926 19ZM106.397 30.95C106.064 30.4833 105.83 30.0833 105.697 29.75C105.564 29.4167 105.497 29 105.497 28.5C105.497 27.9667 105.714 27.5167 106.147 27.15C106.614 26.7833 107.197 26.6 107.897 26.6C108.597 26.6 109.297 26.8667 109.997 27.4C110.697 27.9 111.264 28.55 111.697 29.35C112.397 28.35 113.347 27.6333 114.547 27.2C115.747 26.7667 117.047 26.55 118.447 26.55C119.98 26.55 121.397 27.0167 122.697 27.95C124.03 28.8833 125.08 30.0833 125.847 31.55C126.614 33.0167 126.997 34.4833 126.997 35.95C126.997 37.3833 126.847 38.6667 126.547 39.8C126.247 40.9 125.714 42.0167 124.947 43.15C124.08 44.35 122.914 45.3333 121.447 46.1C120.014 46.8667 118.297 47.25 116.297 47.25C115.764 47.25 115.114 47.1167 114.347 46.85C113.58 46.55 112.947 46.2333 112.447 45.9C112.214 48.1667 112.097 50.1333 112.097 51.8C112.097 52.8 112.147 53.75 112.247 54.65C112.314 55.7167 112.347 56.4833 112.347 56.95C112.347 57.6833 112.097 58.2167 111.597 58.55C111.097 58.9167 110.547 59.1 109.947 59.1C108.747 59.1 107.947 58.7667 107.547 58.1C107.18 57.4667 106.997 56.55 106.997 55.35C107.13 52.4833 107.297 49.8333 107.497 47.4C107.73 43.9 107.847 39.6 107.847 34.5C107.847 34.1 107.68 33.5167 107.347 32.75C107.047 31.9833 106.73 31.3833 106.397 30.95ZM112.647 40.95C112.814 41.5833 113.28 42.1167 114.047 42.55C114.847 42.95 115.564 43.15 116.197 43.15C118.097 43.15 119.514 42.6333 120.447 41.6C121.147 40.8667 121.597 40.15 121.797 39.45C122.03 38.75 122.147 37.6333 122.147 36.1C122.147 34.9 121.914 33.9 121.447 33.1C120.98 32.2667 120.414 31.6667 119.747 31.3C119.08 30.9 118.447 30.7 117.847 30.7C116.48 30.7 115.364 31.1167 114.497 31.95C113.664 32.75 113.13 33.85 112.897 35.25C112.73 36.35 112.647 38.25 112.647 40.95Z" fill="#FF0303"/>
</svg>
